<svg width="315" height="17" viewBox="0 0 315 17" fill="none" xmlns="http://www.w3.org/2000/svg">
<path d="M179.902 1.01727L179.883 1.11493L179.883 3.14618C179.87 3.18524 179.831 3.20477 179.766 3.20477L178.027 3.20477C178.008 3.20477 177.988 3.18524 177.969 3.14618L177.969 1.01727C177.969 0.991231 177.982 0.97821 178.008 0.97821L179.844 0.97821L179.902 1.01727ZM176.387 1.01727L176.387 3.14618C176.387 3.16571 176.367 3.18524 176.328 3.20477L174.59 3.20477C174.522 3.20477 174.483 3.18524 174.473 3.14618L174.473 1.01727C174.473 0.991231 174.486 0.97821 174.512 0.97821L176.348 0.97821C176.374 0.981465 176.387 0.994486 176.387 1.01727Z" fill="white"/>
<path d="M3.11035 4.85938H9.58496C9.63997 4.85938 9.79232 5.31641 10.042 6.23047C10.7699 8.59603 11.4215 10.7627 11.9971 12.7305C12.1833 13.2848 12.3018 13.6742 12.3525 13.8984V13.9746L12.3018 14H8.1123C8.02767 14 7.92611 13.7292 7.80762 13.1875C7.77799 13.1706 7.70182 12.9167 7.5791 12.4258L7.50293 12.375H5.1416L4.65918 13.9746L4.53223 14H0.368164C0.33431 14 0.317383 13.9831 0.317383 13.9492V13.9238C0.317383 13.9069 0.325846 13.8984 0.342773 13.8984L0.317383 13.8477C0.359701 13.7757 0.444336 13.5387 0.571289 13.1367L0.545898 13.0859C0.59668 13.0055 0.859049 12.1592 1.33301 10.5469C1.55306 9.85286 1.72233 9.28581 1.84082 8.8457C2.02702 8.29557 2.41634 7.00065 3.00879 4.96094C3.00879 4.93555 3.04264 4.90169 3.11035 4.85938ZM5.59863 10.8262V10.9023L5.62402 10.9531L5.6748 10.9277H7.0459L7.09668 10.9023L6.38574 8.54102V8.49023H6.33496C6.30534 8.51139 6.16992 8.9515 5.92871 9.81055C5.861 9.99251 5.75944 10.3226 5.62402 10.8008C5.6071 10.8008 5.59863 10.8092 5.59863 10.8262ZM13.5649 6.63037H16.4976C16.5991 6.65999 16.6562 6.6748 16.6689 6.6748C17.1979 6.6748 17.7861 6.73405 18.4336 6.85254C18.7721 6.88639 19.3138 7.05566 20.0586 7.36035C20.7695 7.70736 21.2837 8.21094 21.6011 8.87109C21.745 9.20117 21.8402 9.62435 21.8867 10.1406V10.4961L21.7534 11.2705C21.5884 11.8418 21.2773 12.375 20.8203 12.8701C20.431 13.2129 20.1263 13.4351 19.9062 13.5366C19.3519 13.7736 18.9753 13.8921 18.7764 13.8921C18.7764 13.909 18.77 13.9175 18.7573 13.9175C18.6134 13.9175 18.4399 13.9238 18.2368 13.9365C17.9067 13.9365 17.5005 13.8625 17.0181 13.7144V16.2915C17.0181 16.3211 17.0033 16.3359 16.9736 16.3359H13.5649C13.5353 16.3359 13.5205 16.3211 13.5205 16.2915C13.6644 15.6652 13.7363 15.1849 13.7363 14.8506C13.766 14.8506 13.7808 14.8358 13.7808 14.8062C13.7977 14.4676 13.8062 14.2158 13.8062 14.0508L13.8442 14.0254C13.8442 13.8857 13.8527 13.3822 13.8696 12.5146C13.8696 12.3708 13.8612 11.7487 13.8442 10.6484C13.8188 10.6484 13.8062 10.6273 13.8062 10.585C13.8062 10.4072 13.7977 10.0433 13.7808 9.49316C13.7511 9.44661 13.7363 9.41064 13.7363 9.38525C13.7236 8.94092 13.7173 8.68066 13.7173 8.60449C13.675 8.56217 13.6538 8.29557 13.6538 7.80469C13.6242 7.80469 13.6094 7.78988 13.6094 7.76025C13.5924 7.44287 13.584 7.2207 13.584 7.09375C13.5544 7.09375 13.5396 7.07894 13.5396 7.04932V6.91602L13.5205 6.64941L13.5649 6.63037ZM17.1704 9.25195L17.0435 9.22656L17.0181 9.271V10.8262H17.145C17.1916 10.8262 17.2424 10.841 17.2974 10.8706L17.9639 10.7627C18.4378 10.5638 18.6748 10.348 18.6748 10.1152C18.7087 10.1152 18.7256 10.1004 18.7256 10.0708V10.0073C18.5732 9.66455 18.4378 9.49316 18.3193 9.49316C18.1966 9.40007 17.9681 9.3112 17.6338 9.22656L17.5068 9.25195H17.4814C17.4645 9.25195 17.3947 9.23714 17.272 9.20752H17.2466L17.1704 9.25195ZM22.8579 6.63037H25.7905C25.8921 6.65999 25.9492 6.6748 25.9619 6.6748C26.4909 6.6748 27.0791 6.73405 27.7266 6.85254C28.0651 6.88639 28.6068 7.05566 29.3516 7.36035C30.0625 7.70736 30.5767 8.21094 30.894 8.87109C31.0379 9.20117 31.1331 9.62435 31.1797 10.1406V10.4961L31.0464 11.2705C30.8813 11.8418 30.5703 12.375 30.1133 12.8701C29.724 13.2129 29.4193 13.4351 29.1992 13.5366C28.6449 13.7736 28.2682 13.8921 28.0693 13.8921C28.0693 13.909 28.063 13.9175 28.0503 13.9175C27.9064 13.9175 27.7329 13.9238 27.5298 13.9365C27.1997 13.9365 26.7935 13.8625 26.311 13.7144V16.2915C26.311 16.3211 26.2962 16.3359 26.2666 16.3359H22.8579C22.8283 16.3359 22.8135 16.3211 22.8135 16.2915C22.9574 15.6652 23.0293 15.1849 23.0293 14.8506C23.0589 14.8506 23.0737 14.8358 23.0737 14.8062C23.0907 14.4676 23.0991 14.2158 23.0991 14.0508L23.1372 14.0254C23.1372 13.8857 23.1457 13.3822 23.1626 12.5146C23.1626 12.3708 23.1541 11.7487 23.1372 10.6484C23.1118 10.6484 23.0991 10.6273 23.0991 10.585C23.0991 10.4072 23.0907 10.0433 23.0737 9.49316C23.0441 9.44661 23.0293 9.41064 23.0293 9.38525C23.0166 8.94092 23.0103 8.68066 23.0103 8.60449C22.9679 8.56217 22.9468 8.29557 22.9468 7.80469C22.9172 7.80469 22.9023 7.78988 22.9023 7.76025C22.8854 7.44287 22.877 7.2207 22.877 7.09375C22.8473 7.09375 22.8325 7.07894 22.8325 7.04932V6.91602L22.8135 6.64941L22.8579 6.63037ZM26.4634 9.25195L26.3364 9.22656L26.311 9.271V10.8262H26.438C26.4845 10.8262 26.5353 10.841 26.5903 10.8706L27.2568 10.7627C27.7308 10.5638 27.9678 10.348 27.9678 10.1152C28.0016 10.1152 28.0186 10.1004 28.0186 10.0708V10.0073C27.8662 9.66455 27.7308 9.49316 27.6123 9.49316C27.4896 9.40007 27.2611 9.3112 26.9268 9.22656L26.7998 9.25195H26.7744C26.7575 9.25195 26.6877 9.23714 26.5649 9.20752H26.5396L26.4634 9.25195ZM35.7817 5.53223H36.6958C37.6987 5.68034 38.4858 5.9681 39.0571 6.39551C39.5946 6.78906 40.0177 7.22917 40.3267 7.71582C40.5806 8.19401 40.7075 8.49023 40.7075 8.60449V8.62988C40.6398 8.67643 40.1489 8.88802 39.2349 9.26465L38.3716 9.59473L37.1274 10.1025C36.645 10.2845 36.3996 10.403 36.3911 10.458C36.4165 10.6865 36.5688 10.9404 36.8481 11.2197C37.1105 11.389 37.356 11.4736 37.5845 11.4736C37.6733 11.4567 37.758 11.4482 37.8384 11.4482H37.9399L38.7778 11.1689C39.1672 11.0547 39.5734 10.7754 39.9966 10.3311H40.022C40.1701 10.5046 40.3732 10.8431 40.6313 11.3467C40.5044 11.918 40.0304 12.5612 39.2095 13.2764C38.4604 13.7503 37.9865 13.9873 37.7876 13.9873C37.411 14.1227 37.1147 14.1904 36.8989 14.1904H36.7974L36.7212 14.2412H35.8071C35.0877 14.1396 34.4868 13.9704 34.0044 13.7334C33.6405 13.5811 33.175 13.2256 32.6079 12.667C32.2609 12.2523 32.0324 11.8968 31.9224 11.6006C31.7362 11.3128 31.6007 10.805 31.5161 10.0771V9.69629C31.6007 8.97266 31.7446 8.43945 31.9478 8.09668C32.2228 7.4873 32.6629 6.96257 33.2681 6.52246C33.5304 6.29395 33.8351 6.10775 34.1821 5.96387C34.8423 5.69303 35.3501 5.55762 35.7056 5.55762C35.7056 5.54069 35.731 5.53223 35.7817 5.53223ZM36.0103 8.42676L36.061 8.78223H36.0864C36.1753 8.78223 36.3615 8.72298 36.645 8.60449L37.813 8.22363V8.19824C37.5887 7.77507 37.3517 7.56348 37.1021 7.56348C37.1021 7.52539 37.0259 7.5 36.8735 7.4873C36.6366 7.4873 36.408 7.62272 36.188 7.89355C36.0695 8.08822 36.0103 8.26595 36.0103 8.42676ZM41.7358 4.82764H44.0972C44.131 4.83187 44.1479 4.8488 44.1479 4.87842V5.51318L44.0972 5.69092C44.0802 6.61768 44.0718 7.30322 44.0718 7.74756L44.021 7.77295C44.0041 9.96501 43.9956 11.5562 43.9956 12.5464C43.9956 12.9146 44.0041 13.4901 44.021 14.2729L43.9702 14.2983H41.7104L41.6597 14.2729C41.6766 14.0444 41.6851 13.8752 41.6851 13.7651V13.6636L41.7358 13.5874C41.7358 13.5197 41.7443 13.1981 41.7612 12.6226L41.812 12.4448C41.8289 11.6493 41.8374 11.0399 41.8374 10.6167C41.8713 10.6167 41.8882 10.5998 41.8882 10.5659V8.20459L41.8374 7.97607C41.8374 7.65869 41.8289 7.06624 41.812 6.19873C41.7782 6.14372 41.7612 6.1014 41.7612 6.07178C41.7443 5.50049 41.7358 5.17041 41.7358 5.08154C41.702 5.08154 41.6851 5.06462 41.6851 5.03076V4.87842C41.6893 4.84456 41.7062 4.82764 41.7358 4.82764ZM48.4072 5.10059H49.2959C49.8883 5.17253 50.3538 5.31641 50.6924 5.53223C51.4541 6.06966 51.835 7.10221 51.835 8.62988V9.08057C51.835 9.60107 51.8265 10.2972 51.8096 11.1689C51.7757 11.1732 51.7588 11.1901 51.7588 11.2197C51.7588 11.5329 51.7503 12.1571 51.7334 13.0923C51.7503 13.5112 51.7588 13.799 51.7588 13.9556L51.708 13.9746H50.4893C50.1423 13.9746 49.6175 13.9683 48.915 13.9556L48.8643 13.8794V13.3271H48.8389C48.0856 13.9196 47.5186 14.2158 47.1377 14.2158C47.1377 14.2327 47.1292 14.2412 47.1123 14.2412H46.7568C46.3379 14.1143 46.084 13.9788 45.9951 13.835C45.6523 13.5387 45.3984 13.1219 45.2334 12.5845C45.1953 12.3009 45.1615 12.1486 45.1318 12.1274V11.3149C45.1615 11.2769 45.1953 11.1414 45.2334 10.9087C45.2715 10.6125 45.4746 10.276 45.8428 9.89941C46.0417 9.64551 46.7188 9.27734 47.874 8.79492C48.2887 8.55794 48.5765 8.38232 48.7373 8.26807C48.8219 8.22152 48.8643 8.17285 48.8643 8.12207C48.8643 7.73698 48.8896 7.46615 48.9404 7.30957V6.97314C48.8643 6.74886 48.7965 6.63672 48.7373 6.63672C48.6611 6.59017 48.585 6.56689 48.5088 6.56689C48.3607 6.56689 48.2676 6.63883 48.2295 6.78271C48.111 7.01546 48.0518 7.4471 48.0518 8.07764L48.001 8.09668C46.2406 7.93587 45.3604 7.84066 45.3604 7.81104V7.74121C45.3942 7.70312 45.4111 7.67139 45.4111 7.646C45.4111 7.07894 45.5804 6.56689 45.9189 6.10986C46.194 5.729 46.6257 5.45605 47.2139 5.29102C47.472 5.22754 47.6328 5.1958 47.6963 5.1958L47.7217 5.15137C47.7555 5.15137 47.7725 5.15771 47.7725 5.17041C48.0898 5.15771 48.3014 5.13444 48.4072 5.10059ZM48.0771 10.8833C48.0771 11.0187 48.0687 11.1626 48.0518 11.3149C48.0687 11.4969 48.0771 11.6641 48.0771 11.8164C48.1025 11.8164 48.1364 11.8968 48.1787 12.0576C48.293 12.1846 48.3691 12.248 48.4072 12.248C48.6188 12.1719 48.7542 12.0597 48.8135 11.9116L48.8643 11.8418V9.96924H48.8389C48.3903 10.3586 48.1364 10.6632 48.0771 10.8833ZM53.4092 4.28809H55.9736C55.999 4.28809 56.0244 4.31348 56.0498 4.36426V5.40527C56.0498 5.4222 56.0413 5.43066 56.0244 5.43066C56.0413 5.46029 56.0498 5.49414 56.0498 5.53223L56.2275 5.50684H56.71C56.8369 5.50684 56.9046 5.53223 56.9131 5.58301V7.33496C56.9131 7.36035 56.8877 7.38574 56.8369 7.41113H56.0752L56.0244 7.43652L56.0498 7.56348V12.9209C56.0498 12.9378 56.0413 12.9463 56.0244 12.9463L56.0752 13.0479L56.126 13.0225H57.0146C57.04 13.0225 57.0654 13.0479 57.0908 13.0986V14.6729C57.0908 14.6982 57.0654 14.7236 57.0146 14.749H55.085C55.0469 14.7109 54.9368 14.6855 54.7549 14.6729C54.3783 14.5332 54.0736 14.3301 53.8408 14.0635C53.5954 13.763 53.46 13.5176 53.4346 13.3271C53.4049 13.3271 53.3711 13.1748 53.333 12.8701V7.41113H52.5205C52.4867 7.41113 52.4697 7.39421 52.4697 7.36035V5.58301C52.4697 5.55762 52.4951 5.53223 52.5459 5.50684H53.1553L53.2822 5.53223L53.333 5.45605V4.36426C53.333 4.33887 53.3584 4.31348 53.4092 4.28809ZM59.3062 4.12305H59.3569C59.8182 4.12305 60.2075 4.36003 60.5249 4.83398C60.5757 4.99479 60.6011 5.09635 60.6011 5.13867V5.54492C60.6011 5.82422 60.3979 6.11198 59.9917 6.4082C59.8563 6.47168 59.6955 6.52246 59.5093 6.56055H59.2046C58.9041 6.56055 58.5994 6.4082 58.2905 6.10352C58.2101 5.98926 58.1255 5.81999 58.0366 5.5957V5.08789C58.1763 4.69857 58.3794 4.4362 58.646 4.30078C58.8787 4.18229 59.0988 4.12305 59.3062 4.12305ZM58.062 7.5H60.3979C60.4318 7.50423 60.4487 7.52116 60.4487 7.55078C60.4318 8.12207 60.4233 8.51139 60.4233 8.71875C60.3895 8.72298 60.3726 8.73991 60.3726 8.76953C60.3556 9.62435 60.3472 10.293 60.3472 10.7754V10.8008L60.2964 10.877V13.4668C60.3302 13.5853 60.3472 13.653 60.3472 13.6699V13.9492C60.3472 13.9831 60.3302 14 60.2964 14H58.0112C57.9774 14 57.9604 13.9746 57.9604 13.9238C57.9901 13.8857 58.0239 13.6318 58.062 13.1621C58.0959 13.1621 58.1128 12.8659 58.1128 12.2734C58.1466 12.2734 58.1636 12.2565 58.1636 12.2227C58.1805 11.334 58.189 10.8092 58.189 10.6484C58.189 10.5384 58.1805 9.99674 58.1636 9.02344C58.1297 8.96842 58.1128 8.92611 58.1128 8.89648C58.0959 8.43522 58.0874 8.15592 58.0874 8.05859C58.0535 8.05859 58.0366 8.0332 58.0366 7.98242C58.0366 7.91471 58.0282 7.76237 58.0112 7.52539L58.062 7.5ZM64.562 6.29395H65.0317C65.62 6.37858 66.0854 6.52458 66.4282 6.73193C67.1222 7.16357 67.6449 7.81315 67.9961 8.68066C68.0934 9.05729 68.1421 9.30485 68.1421 9.42334V9.50586L68.1929 9.58203V10.4517C68.1082 11.078 67.958 11.5752 67.7422 11.9434C67.6745 12.1888 67.3529 12.5908 66.7773 13.1494C66.4176 13.4076 66.0114 13.6043 65.5586 13.7397V13.7144C65.3174 13.7821 65.1841 13.8159 65.1587 13.8159H64.5874C64.1938 13.7821 63.7368 13.6276 63.2163 13.3525C62.0737 12.5485 61.5024 11.4715 61.5024 10.1216V9.9375C61.5024 9.04883 61.8008 8.22786 62.3975 7.47461C62.4313 7.47461 62.5731 7.32861 62.8228 7.03662C62.8524 7.03662 62.9688 6.96045 63.1719 6.80811C63.6204 6.52035 64.0754 6.35742 64.5366 6.31934C64.5366 6.30241 64.5451 6.29395 64.562 6.29395ZM63.6987 8.1665C63.7326 8.20036 63.7495 8.24056 63.7495 8.28711L63.6099 8.43945L63.6543 8.55371C63.6331 8.69336 63.6035 8.76318 63.5654 8.76318L63.6099 8.82666V9.03613C63.5464 9.17578 63.5146 9.25618 63.5146 9.27734V10.4707C63.5146 10.5173 63.4998 10.5575 63.4702 10.5913L63.6099 10.7437V10.9785C63.6099 10.9997 63.5951 11.0103 63.5654 11.0103C63.5951 11.0314 63.6247 11.152 63.6543 11.3721H63.6099C63.703 11.5329 63.7495 11.6217 63.7495 11.6387H63.6987C64.0119 12.5358 64.2573 12.9844 64.4351 12.9844C64.4351 13.0394 64.5726 13.1198 64.8477 13.2256H64.9365C65.237 13.1536 65.5438 12.8151 65.8569 12.21C65.8569 12.1296 65.9331 11.8883 66.0854 11.4863L66.041 11.4292V11.3403C66.1003 11.2599 66.1468 11.2197 66.1807 11.2197L66.1299 11.1626V10.9531C66.1383 10.8516 66.1701 10.8008 66.2251 10.8008L66.1807 10.6484V9.18213C66.1807 9.13981 66.1955 9.10173 66.2251 9.06787C66.1701 8.93245 66.1087 8.7124 66.041 8.40771L66.0854 8.34424C66.0262 8.26807 65.9966 8.19824 65.9966 8.13477C66.0262 8.09668 66.041 8.06706 66.041 8.0459C65.9987 8.0459 65.9373 7.95703 65.8569 7.7793C65.8866 7.74121 65.9014 7.71159 65.9014 7.69043C65.859 7.69043 65.7533 7.5 65.584 7.11914C65.3682 6.85254 65.1523 6.69385 64.9365 6.64307C64.4287 6.64307 64.0161 7.15088 63.6987 8.1665ZM75.0103 6.36377C75.0441 6.36377 75.061 6.37223 75.061 6.38916L75.2388 6.36377H75.8735C75.8905 6.36377 75.8989 6.37223 75.8989 6.38916L75.9497 6.36377C76.5041 6.51188 76.9357 6.76579 77.2446 7.12549C77.6001 7.57406 77.7778 7.99723 77.7778 8.39502C77.7948 8.39502 77.8032 8.42041 77.8032 8.47119V13.9556C77.7863 14.0063 77.7355 14.0317 77.6509 14.0317H74.5278C74.4601 14.0021 74.4263 13.9429 74.4263 13.854V10.2231C74.4263 10.1851 74.4347 10.1512 74.4517 10.1216C74.4517 9.96924 74.3247 9.79997 74.0708 9.61377L73.8169 9.58838C73.4572 9.58838 73.1694 9.79997 72.9536 10.2231C72.9367 10.2528 72.9282 10.2866 72.9282 10.3247V13.854C72.9282 13.9429 72.8944 14.0021 72.8267 14.0317H69.2212C69.1873 14.0317 69.1704 14.0148 69.1704 13.981V13.8286C69.272 13.3123 69.3228 12.8638 69.3228 12.4829C69.3566 12.4829 69.3735 12.466 69.3735 12.4321C69.3905 11.9666 69.3989 11.6027 69.3989 11.3403C69.4328 11.3403 69.4497 11.3234 69.4497 11.2896V9.71533C69.4159 9.67301 69.3989 9.63916 69.3989 9.61377C69.3989 9.41911 69.3905 9.03825 69.3735 8.47119C69.3397 8.47119 69.3228 8.4458 69.3228 8.39502C69.3228 8.31885 69.3143 8.12419 69.2974 7.81104C69.2635 7.81104 69.2466 7.78564 69.2466 7.73486C69.2466 7.46403 69.1873 7.06624 69.0688 6.5415L69.145 6.49072H72.8774C73.0044 6.49072 73.0721 6.51611 73.0806 6.56689C73.0806 6.62191 73.0552 6.69808 73.0044 6.79541L73.0298 6.84619V7.1001C73.0298 7.18473 73.0129 7.22705 72.979 7.22705L73.0044 7.354V7.37939L72.979 7.50635L73.0298 7.53174C73.4699 7.07471 73.8761 6.76156 74.2485 6.59229C74.7183 6.45687 74.9637 6.38916 74.9849 6.38916C74.9849 6.37223 74.9933 6.36377 75.0103 6.36377ZM87.3247 3.81836H88.0356C88.0864 3.82682 88.1118 3.89453 88.1118 4.02148V4.37695C88.1118 4.63086 88.0949 4.75781 88.061 4.75781L88.0864 4.80859V5.36719C88.0864 5.4222 88.061 5.49837 88.0103 5.5957L88.0356 5.64648V5.84961C88.0356 5.88346 88.0187 5.90039 87.9849 5.90039H87.8071C87.769 5.90039 87.7352 5.89193 87.7056 5.875C86.9608 5.92155 86.5884 6.09082 86.5884 6.38281L86.4868 6.78906L86.5122 6.91602V7.19531L86.4868 7.34766C86.5037 7.38151 86.5122 7.4069 86.5122 7.42383H87.6548C87.6802 7.42383 87.7056 7.44922 87.731 7.5V9.58203C87.731 9.60742 87.7056 9.63281 87.6548 9.6582H86.563L86.4868 9.70898L86.5122 9.88672V13.8477C86.5122 13.9365 86.4784 13.9958 86.4106 14.0254H83.313C83.2791 14.0254 83.2622 14.0085 83.2622 13.9746V9.70898C83.2622 9.67513 83.2453 9.6582 83.2114 9.6582H82.2212C82.1704 9.64551 82.145 9.5778 82.145 9.45508V7.60156C82.145 7.50846 82.1789 7.44922 82.2466 7.42383H83.2114C83.2453 7.42383 83.2622 7.4069 83.2622 7.37305V6.45898C83.2622 6.3151 83.2707 6.08659 83.2876 5.77344C83.313 5.77344 83.3468 5.64648 83.3892 5.39258C83.495 4.97786 83.7489 4.63086 84.1509 4.35156C84.5994 4.13151 84.9549 4.02148 85.2173 4.02148C85.2173 3.9834 85.4204 3.94954 85.8267 3.91992C85.8267 3.90299 85.8351 3.89453 85.8521 3.89453C86.453 3.8776 86.8846 3.86914 87.147 3.86914L87.3247 3.81836ZM88.7148 6.9668H91.9648C91.9987 6.97103 92.0156 6.98796 92.0156 7.01758V10.7754C92.0156 11.0632 92.168 11.2663 92.4727 11.3848H92.752C93.2767 11.2282 93.5391 10.9066 93.5391 10.4199V7.01758C93.5433 6.98372 93.5602 6.9668 93.5898 6.9668H97.2207C97.2461 6.9668 97.2715 6.99219 97.2969 7.04297C97.2969 7.0599 97.2884 7.06836 97.2715 7.06836L97.2969 7.11914C97.2461 7.22493 97.2122 7.37728 97.1953 7.57617C97.2122 7.61003 97.2207 7.63542 97.2207 7.65234C97.1826 7.78776 97.1572 7.85547 97.1445 7.85547L97.1699 7.90625C97.1615 8.07552 97.1445 8.16016 97.1191 8.16016L97.1445 8.21094V8.33789C97.1107 8.4056 97.0853 8.43945 97.0684 8.43945L97.0938 8.49023V8.76953C97.0938 8.85417 97.0768 8.89648 97.043 8.89648L97.0684 8.94727V9.4043L97.0176 9.48047V11.4102C97.0514 11.5752 97.0684 11.6683 97.0684 11.6895L97.0938 12.5527C97.1276 12.6077 97.1445 12.6585 97.1445 12.7051V12.8066C97.1445 12.8236 97.1361 12.832 97.1191 12.832C97.1361 12.849 97.153 12.9505 97.1699 13.1367H97.1445C97.1953 13.2679 97.2207 13.3525 97.2207 13.3906C97.2207 13.4076 97.2122 13.416 97.1953 13.416C97.2122 13.5811 97.2461 13.7419 97.2969 13.8984L97.2715 13.9492C97.2884 14.0846 97.3223 14.2116 97.373 14.3301C97.3392 14.4316 97.3053 14.4824 97.2715 14.4824H93.4883C93.4629 14.4824 93.429 14.4486 93.3867 14.3809V14.2793C93.3867 14.2624 93.4036 14.1947 93.4375 14.0762V13.873C93.4375 13.7842 93.446 13.6403 93.4629 13.4414H93.4375C92.9932 13.8942 92.5869 14.1989 92.2188 14.3555C91.7744 14.5247 91.4528 14.6094 91.2539 14.6094C91.2539 14.6263 91.2454 14.6348 91.2285 14.6348H90.7207C90.2467 14.5544 89.8405 14.3936 89.502 14.1523C89.0492 13.6995 88.7952 13.2933 88.7402 12.9336C88.7191 12.7855 88.6937 12.6924 88.6641 12.6543V7.01758C88.6683 6.98372 88.6852 6.9668 88.7148 6.9668ZM98.2681 4.82764H100.629C100.663 4.83187 100.68 4.8488 100.68 4.87842V5.51318L100.629 5.69092C100.612 6.61768 100.604 7.30322 100.604 7.74756L100.553 7.77295C100.536 9.96501 100.528 11.5562 100.528 12.5464C100.528 12.9146 100.536 13.4901 100.553 14.2729L100.502 14.2983H98.2427L98.1919 14.2729C98.2088 14.0444 98.2173 13.8752 98.2173 13.7651V13.6636L98.2681 13.5874C98.2681 13.5197 98.2765 13.1981 98.2935 12.6226L98.3442 12.4448C98.3612 11.6493 98.3696 11.0399 98.3696 10.6167C98.4035 10.6167 98.4204 10.5998 98.4204 10.5659V8.20459L98.3696 7.97607C98.3696 7.65869 98.3612 7.06624 98.3442 6.19873C98.3104 6.14372 98.2935 6.1014 98.2935 6.07178C98.2765 5.50049 98.2681 5.17041 98.2681 5.08154C98.2342 5.08154 98.2173 5.06462 98.2173 5.03076V4.87842C98.2215 4.84456 98.2384 4.82764 98.2681 4.82764ZM101.95 4.82764H104.311C104.345 4.83187 104.362 4.8488 104.362 4.87842V5.51318L104.311 5.69092C104.294 6.61768 104.286 7.30322 104.286 7.74756L104.235 7.77295C104.218 9.96501 104.209 11.5562 104.209 12.5464C104.209 12.9146 104.218 13.4901 104.235 14.2729L104.184 14.2983H101.924L101.874 14.2729C101.89 14.0444 101.899 13.8752 101.899 13.7651V13.6636L101.95 13.5874C101.95 13.5197 101.958 13.1981 101.975 12.6226L102.026 12.4448C102.043 11.6493 102.051 11.0399 102.051 10.6167C102.085 10.6167 102.102 10.5998 102.102 10.5659V8.20459L102.051 7.97607C102.051 7.65869 102.043 7.06624 102.026 6.19873C101.992 6.14372 101.975 6.1014 101.975 6.07178C101.958 5.50049 101.95 5.17041 101.95 5.08154C101.916 5.08154 101.899 5.06462 101.899 5.03076V4.87842C101.903 4.84456 101.92 4.82764 101.95 4.82764ZM109.561 6.71924C109.696 6.7277 109.764 6.75309 109.764 6.79541C109.798 6.77848 109.823 6.77002 109.84 6.77002C109.891 6.78695 109.916 6.80387 109.916 6.8208L109.967 6.79541C109.988 6.79541 110.03 6.83773 110.094 6.92236V8.92822C110.094 8.97054 109.992 9.01286 109.789 9.05518H109.713C109.645 9.05518 109.586 8.92822 109.535 8.67432C109.049 8.08187 108.659 7.75179 108.367 7.68408C108.211 7.60368 108.075 7.5529 107.961 7.53174C107.927 7.54867 107.902 7.55713 107.885 7.55713C107.885 7.51481 107.851 7.48942 107.783 7.48096C107.428 7.5529 107.25 7.67985 107.25 7.86182C107.216 7.86605 107.199 7.88298 107.199 7.9126V8.11572C107.25 8.29346 107.377 8.47965 107.58 8.67432C108.012 9.04248 108.57 9.44027 109.256 9.86768C110.035 10.5363 110.424 10.9849 110.424 11.2134C110.487 11.2134 110.538 11.4419 110.576 11.8989V11.9243C110.576 12.7072 110.161 13.3504 109.332 13.854C109.154 13.9556 108.96 14.0233 108.748 14.0571C108.748 14.0741 108.74 14.0825 108.723 14.0825C108.613 14.0825 108.443 14.091 108.215 14.1079C108.029 14.091 107.868 14.0825 107.732 14.0825C107.732 14.0487 107.521 14.0063 107.098 13.9556C107.098 13.9344 106.92 13.8667 106.564 13.7524C106.391 13.7186 106.281 13.6847 106.234 13.6509H106.057C106.04 13.6509 105.947 13.7271 105.777 13.8794H105.498L105.422 13.8286L105.447 13.6509V11.5435L105.422 11.4165L105.498 11.3657H105.777L106.641 12.5337C107.098 13.0246 107.495 13.27 107.834 13.27H107.91C108.118 13.27 108.321 13.1092 108.52 12.7876C108.52 12.7495 108.528 12.7157 108.545 12.686C108.545 12.339 108.012 11.8228 106.945 11.1372C106.031 10.4644 105.515 9.90576 105.396 9.46143C105.329 9.26253 105.295 9.05941 105.295 8.85205V8.75049L105.32 8.59814C105.303 8.56429 105.295 8.5389 105.295 8.52197L105.447 8.14111C105.507 7.82796 105.769 7.48096 106.234 7.1001C106.696 6.89697 106.992 6.79541 107.123 6.79541H107.885C107.965 6.79541 108.354 6.88851 109.053 7.07471H109.104C109.285 7.01969 109.421 6.9012 109.51 6.71924H109.561ZM112.011 4.28809H114.575C114.601 4.28809 114.626 4.31348 114.651 4.36426V5.40527C114.651 5.4222 114.643 5.43066 114.626 5.43066C114.643 5.46029 114.651 5.49414 114.651 5.53223L114.829 5.50684H115.312C115.438 5.50684 115.506 5.53223 115.515 5.58301V7.33496C115.515 7.36035 115.489 7.38574 115.438 7.41113H114.677L114.626 7.43652L114.651 7.56348V12.9209C114.651 12.9378 114.643 12.9463 114.626 12.9463L114.677 13.0479L114.728 13.0225H115.616C115.642 13.0225 115.667 13.0479 115.692 13.0986V14.6729C115.692 14.6982 115.667 14.7236 115.616 14.749H113.687C113.648 14.7109 113.538 14.6855 113.356 14.6729C112.98 14.5332 112.675 14.3301 112.442 14.0635C112.197 13.763 112.062 13.5176 112.036 13.3271C112.007 13.3271 111.973 13.1748 111.935 12.8701V7.41113H111.122C111.088 7.41113 111.071 7.39421 111.071 7.36035V5.58301C111.071 5.55762 111.097 5.53223 111.147 5.50684H111.757L111.884 5.53223L111.935 5.45605V4.36426C111.935 4.33887 111.96 4.31348 112.011 4.28809ZM119.679 5.10059H120.567C121.16 5.17253 121.625 5.31641 121.964 5.53223C122.726 6.06966 123.106 7.10221 123.106 8.62988V9.08057C123.106 9.60107 123.098 10.2972 123.081 11.1689C123.047 11.1732 123.03 11.1901 123.03 11.2197C123.03 11.5329 123.022 12.1571 123.005 13.0923C123.022 13.5112 123.03 13.799 123.03 13.9556L122.979 13.9746H121.761C121.414 13.9746 120.889 13.9683 120.187 13.9556L120.136 13.8794V13.3271H120.11C119.357 13.9196 118.79 14.2158 118.409 14.2158C118.409 14.2327 118.401 14.2412 118.384 14.2412H118.028C117.609 14.1143 117.355 13.9788 117.267 13.835C116.924 13.5387 116.67 13.1219 116.505 12.5845C116.467 12.3009 116.433 12.1486 116.403 12.1274V11.3149C116.433 11.2769 116.467 11.1414 116.505 10.9087C116.543 10.6125 116.746 10.276 117.114 9.89941C117.313 9.64551 117.99 9.27734 119.146 8.79492C119.56 8.55794 119.848 8.38232 120.009 8.26807C120.093 8.22152 120.136 8.17285 120.136 8.12207C120.136 7.73698 120.161 7.46615 120.212 7.30957V6.97314C120.136 6.74886 120.068 6.63672 120.009 6.63672C119.933 6.59017 119.856 6.56689 119.78 6.56689C119.632 6.56689 119.539 6.63883 119.501 6.78271C119.382 7.01546 119.323 7.4471 119.323 8.07764L119.272 8.09668C117.512 7.93587 116.632 7.84066 116.632 7.81104V7.74121C116.666 7.70312 116.683 7.67139 116.683 7.646C116.683 7.07894 116.852 6.56689 117.19 6.10986C117.465 5.729 117.897 5.45605 118.485 5.29102C118.743 5.22754 118.904 5.1958 118.968 5.1958L118.993 5.15137C119.027 5.15137 119.044 5.15771 119.044 5.17041C119.361 5.15771 119.573 5.13444 119.679 5.10059ZM119.349 10.8833C119.349 11.0187 119.34 11.1626 119.323 11.3149C119.34 11.4969 119.349 11.6641 119.349 11.8164C119.374 11.8164 119.408 11.8968 119.45 12.0576C119.564 12.1846 119.641 12.248 119.679 12.248C119.89 12.1719 120.026 12.0597 120.085 11.9116L120.136 11.8418V9.96924H120.11C119.662 10.3586 119.408 10.6632 119.349 10.8833ZM129.74 6.36377C129.774 6.36377 129.791 6.37223 129.791 6.38916L129.968 6.36377H130.603C130.62 6.36377 130.628 6.37223 130.628 6.38916L130.679 6.36377C131.234 6.51188 131.665 6.76579 131.974 7.12549C132.33 7.57406 132.507 7.99723 132.507 8.39502C132.524 8.39502 132.533 8.42041 132.533 8.47119V13.9556C132.516 14.0063 132.465 14.0317 132.38 14.0317H129.257C129.19 14.0021 129.156 13.9429 129.156 13.854V10.2231C129.156 10.1851 129.164 10.1512 129.181 10.1216C129.181 9.96924 129.054 9.79997 128.8 9.61377L128.546 9.58838C128.187 9.58838 127.899 9.79997 127.683 10.2231C127.666 10.2528 127.658 10.2866 127.658 10.3247V13.854C127.658 13.9429 127.624 14.0021 127.556 14.0317H123.951C123.917 14.0317 123.9 14.0148 123.9 13.981V13.8286C124.001 13.3123 124.052 12.8638 124.052 12.4829C124.086 12.4829 124.103 12.466 124.103 12.4321C124.12 11.9666 124.128 11.6027 124.128 11.3403C124.162 11.3403 124.179 11.3234 124.179 11.2896V9.71533C124.145 9.67301 124.128 9.63916 124.128 9.61377C124.128 9.41911 124.12 9.03825 124.103 8.47119C124.069 8.47119 124.052 8.4458 124.052 8.39502C124.052 8.31885 124.044 8.12419 124.027 7.81104C123.993 7.81104 123.976 7.78564 123.976 7.73486C123.976 7.46403 123.917 7.06624 123.798 6.5415L123.875 6.49072H127.607C127.734 6.49072 127.802 6.51611 127.81 6.56689C127.81 6.62191 127.785 6.69808 127.734 6.79541L127.759 6.84619V7.1001C127.759 7.18473 127.742 7.22705 127.708 7.22705L127.734 7.354V7.37939L127.708 7.50635L127.759 7.53174C128.199 7.07471 128.606 6.76156 128.978 6.59229C129.448 6.45687 129.693 6.38916 129.714 6.38916C129.714 6.37223 129.723 6.36377 129.74 6.36377ZM139.001 3.58984H141.553C141.578 3.58984 141.604 3.61312 141.629 3.65967V13.8223C141.629 13.8434 141.604 13.8667 141.553 13.8921H139.001C138.98 13.8921 138.957 13.8688 138.931 13.8223V13.2764H138.906C138.605 13.4499 138.18 13.6086 137.63 13.7524C137.583 13.7524 137.505 13.7673 137.395 13.7969H137.3C137.287 13.7969 137.281 13.7884 137.281 13.7715C137.222 13.8053 137.158 13.8223 137.09 13.8223C136.087 13.8223 135.165 13.3018 134.323 12.2607C133.963 11.7995 133.728 11.3276 133.618 10.8452L133.498 10.2295V9.70898C133.527 9.67513 133.559 9.51009 133.593 9.21387C133.749 8.60449 134.024 8.06071 134.418 7.58252C134.9 7.03239 135.349 6.67904 135.764 6.52246C135.988 6.37858 136.343 6.26644 136.83 6.18604H137.3L137.37 6.23682H137.49C137.808 6.23682 138.279 6.35531 138.906 6.59229H138.931V3.65967C138.931 3.63851 138.954 3.61523 139.001 3.58984ZM137.871 8.55371H137.75C137.213 8.55371 136.773 8.8055 136.43 9.30908C136.392 9.34717 136.352 9.47201 136.31 9.68359V9.9248C136.403 10.1956 136.568 10.4242 136.805 10.6104C137.008 10.7669 137.3 10.8918 137.681 10.9849H137.871C137.901 10.9552 138.017 10.9235 138.22 10.8896C138.533 10.7373 138.77 10.5173 138.931 10.2295L139.052 9.8042C139.069 9.8042 139.077 9.79574 139.077 9.77881V9.59473C139.048 9.36198 138.952 9.13346 138.792 8.90918C138.571 8.73568 138.366 8.632 138.176 8.59814C138.002 8.57275 137.916 8.54948 137.916 8.52832L137.871 8.55371ZM144.009 4.12305H144.06C144.521 4.12305 144.911 4.36003 145.228 4.83398C145.279 4.99479 145.304 5.09635 145.304 5.13867V5.54492C145.304 5.82422 145.101 6.11198 144.695 6.4082C144.559 6.47168 144.399 6.52246 144.212 6.56055H143.908C143.607 6.56055 143.303 6.4082 142.994 6.10352C142.913 5.98926 142.829 5.81999 142.74 5.5957V5.08789C142.879 4.69857 143.083 4.4362 143.349 4.30078C143.582 4.18229 143.802 4.12305 144.009 4.12305ZM142.765 7.5H145.101C145.135 7.50423 145.152 7.52116 145.152 7.55078C145.135 8.12207 145.126 8.51139 145.126 8.71875C145.093 8.72298 145.076 8.73991 145.076 8.76953C145.059 9.62435 145.05 10.293 145.05 10.7754V10.8008L145 10.877V13.4668C145.033 13.5853 145.05 13.653 145.05 13.6699V13.9492C145.05 13.9831 145.033 14 145 14H142.714C142.681 14 142.664 13.9746 142.664 13.9238C142.693 13.8857 142.727 13.6318 142.765 13.1621C142.799 13.1621 142.816 12.8659 142.816 12.2734C142.85 12.2734 142.867 12.2565 142.867 12.2227C142.884 11.334 142.892 10.8092 142.892 10.6484C142.892 10.5384 142.884 9.99674 142.867 9.02344C142.833 8.96842 142.816 8.92611 142.816 8.89648C142.799 8.43522 142.791 8.15592 142.791 8.05859C142.757 8.05859 142.74 8.0332 142.74 7.98242C142.74 7.91471 142.731 7.76237 142.714 7.52539L142.765 7.5ZM149.386 5.93213H149.741C149.86 5.93636 149.919 5.95329 149.919 5.98291L149.97 5.95752H150.351C150.389 5.98714 150.6 6.02946 150.985 6.08447C151.629 6.30452 152.035 6.55843 152.204 6.84619C152.272 6.84619 152.323 6.9139 152.356 7.04932H152.433V6.18604C152.45 6.13525 152.5 6.10986 152.585 6.10986H154.388L154.464 6.16064C154.443 6.58382 154.417 6.79541 154.388 6.79541C154.388 6.90967 154.379 7.17204 154.362 7.58252C154.379 8.38232 154.388 8.91553 154.388 9.18213C154.422 9.23714 154.438 9.28792 154.438 9.33447V12.2798C154.405 12.3983 154.388 12.466 154.388 12.4829C154.388 13.3039 154.261 14.0402 154.007 14.6919C153.694 15.2293 153.203 15.6271 152.534 15.8853C151.967 16.0884 151.502 16.1899 151.138 16.1899H151.036L150.96 16.2407H149.894L149.817 16.1899H149.767C149.149 16.1899 148.429 16.0122 147.608 15.6567C147.371 15.5256 147.126 15.3309 146.872 15.0728C146.55 14.7469 146.39 14.3153 146.39 13.7778V13.7271C146.39 13.6763 146.474 13.634 146.644 13.6001H146.974L147.05 13.5493C147.13 13.5493 147.393 13.5409 147.837 13.5239C147.841 13.4901 147.858 13.4731 147.888 13.4731H148.243C148.269 13.4731 148.311 13.6424 148.37 13.981C148.616 14.4211 148.844 14.6411 149.056 14.6411C149.073 14.6538 149.183 14.6961 149.386 14.7681L149.437 14.7427C149.475 14.7892 149.585 14.8231 149.767 14.8442L149.894 14.8188H150.478L150.63 14.8442C151.235 14.7257 151.726 14.5057 152.103 14.1841C152.34 13.9386 152.458 13.6255 152.458 13.2446C152.475 13.2446 152.483 13.2277 152.483 13.1938C152.45 13.1388 152.433 13.0965 152.433 13.0669C152.416 12.6014 152.407 12.2798 152.407 12.1021C152.373 11.992 152.356 11.9328 152.356 11.9243H152.331C151.87 12.4702 151.489 12.8003 151.188 12.9146C150.808 13.1007 150.418 13.1938 150.021 13.1938C150.021 13.2277 150.004 13.2446 149.97 13.2446H149.157C149.119 13.215 148.967 13.1812 148.7 13.1431C147.735 12.8426 146.965 12.2586 146.39 11.3911C146.034 10.7521 145.856 10.2104 145.856 9.76611V9.23291C145.861 9.11442 145.878 9.05518 145.907 9.05518L145.882 9.00439V8.92822C145.916 8.8859 145.95 8.76742 145.983 8.57275C146.165 8.08187 146.428 7.64176 146.771 7.25244C147.189 6.81234 147.562 6.51611 147.888 6.36377C148.434 6.10986 148.798 5.98291 148.979 5.98291C148.979 5.96598 148.988 5.95752 149.005 5.95752H149.157C149.174 5.95752 149.183 5.96598 149.183 5.98291C149.246 5.94906 149.314 5.93213 149.386 5.93213ZM148.269 9.33447L148.294 9.46143C148.269 9.46143 148.243 9.48682 148.218 9.5376C148.23 9.5376 148.256 9.56299 148.294 9.61377L148.269 9.71533C148.277 9.98617 148.396 10.3247 148.624 10.731C149.098 11.3065 149.614 11.5942 150.173 11.5942H150.198L150.274 11.645H150.351C150.761 11.5942 151.083 11.5011 151.315 11.3657C151.747 11.0737 152.035 10.659 152.179 10.1216C152.187 9.96501 152.213 9.86344 152.255 9.81689V9.23291C152.225 9.18213 152.191 9.03825 152.153 8.80127C152.052 8.46696 151.874 8.17074 151.62 7.9126C151.337 7.64176 151.023 7.48096 150.681 7.43018C150.681 7.41325 150.672 7.40479 150.655 7.40479H150.071C149.665 7.4471 149.25 7.65869 148.827 8.03955C148.455 8.50928 148.269 8.94092 148.269 9.33447ZM158.806 5.10059H159.694C160.287 5.17253 160.752 5.31641 161.091 5.53223C161.853 6.06966 162.233 7.10221 162.233 8.62988V9.08057C162.233 9.60107 162.225 10.2972 162.208 11.1689C162.174 11.1732 162.157 11.1901 162.157 11.2197C162.157 11.5329 162.149 12.1571 162.132 13.0923C162.149 13.5112 162.157 13.799 162.157 13.9556L162.106 13.9746H160.888C160.541 13.9746 160.016 13.9683 159.313 13.9556L159.263 13.8794V13.3271H159.237C158.484 13.9196 157.917 14.2158 157.536 14.2158C157.536 14.2327 157.528 14.2412 157.511 14.2412H157.155C156.736 14.1143 156.482 13.9788 156.394 13.835C156.051 13.5387 155.797 13.1219 155.632 12.5845C155.594 12.3009 155.56 12.1486 155.53 12.1274V11.3149C155.56 11.2769 155.594 11.1414 155.632 10.9087C155.67 10.6125 155.873 10.276 156.241 9.89941C156.44 9.64551 157.117 9.27734 158.272 8.79492C158.687 8.55794 158.975 8.38232 159.136 8.26807C159.22 8.22152 159.263 8.17285 159.263 8.12207C159.263 7.73698 159.288 7.46615 159.339 7.30957V6.97314C159.263 6.74886 159.195 6.63672 159.136 6.63672C159.06 6.59017 158.983 6.56689 158.907 6.56689C158.759 6.56689 158.666 6.63883 158.628 6.78271C158.509 7.01546 158.45 7.4471 158.45 8.07764L158.399 8.09668C156.639 7.93587 155.759 7.84066 155.759 7.81104V7.74121C155.793 7.70312 155.81 7.67139 155.81 7.646C155.81 7.07894 155.979 6.56689 156.317 6.10986C156.592 5.729 157.024 5.45605 157.612 5.29102C157.87 5.22754 158.031 5.1958 158.095 5.1958L158.12 5.15137C158.154 5.15137 158.171 5.15771 158.171 5.17041C158.488 5.15771 158.7 5.13444 158.806 5.10059ZM158.476 10.8833C158.476 11.0187 158.467 11.1626 158.45 11.3149C158.467 11.4969 158.476 11.6641 158.476 11.8164C158.501 11.8164 158.535 11.8968 158.577 12.0576C158.691 12.1846 158.768 12.248 158.806 12.248C159.017 12.1719 159.153 12.0597 159.212 11.9116L159.263 11.8418V9.96924H159.237C158.789 10.3586 158.535 10.6632 158.476 10.8833ZM171.933 6.33203C171.966 6.33203 171.983 6.34049 171.983 6.35742L172.237 6.33203H172.669C172.728 6.33203 172.804 6.34049 172.897 6.35742C172.931 6.34049 172.957 6.33203 172.974 6.33203C173.029 6.37435 173.257 6.46745 173.659 6.61133L173.71 6.6875V6.73828C172.343 8.52832 171.548 9.55241 171.323 9.81055C171.154 9.64128 170.985 9.55664 170.815 9.55664C170.405 9.55664 170.092 9.78516 169.876 10.2422C169.859 10.4157 169.851 10.5511 169.851 10.6484V13.9238C169.834 13.9746 169.783 14 169.698 14H166.651C166.562 14 166.512 13.9746 166.499 13.9238V13.873C166.55 13.5218 166.592 13.2933 166.626 13.1875C166.643 12.8913 166.651 12.7135 166.651 12.6543C166.685 12.6543 166.702 12.6374 166.702 12.6035C166.719 12.0957 166.728 11.7995 166.728 11.7148C166.761 11.6598 166.778 11.609 166.778 11.5625V9.37891C166.744 9.29004 166.719 8.93457 166.702 8.3125C166.651 8.23633 166.626 8.00781 166.626 7.62695C166.592 7.62695 166.55 7.38151 166.499 6.89062C166.478 6.74251 166.452 6.64941 166.423 6.61133V6.53516C166.436 6.48438 166.503 6.45898 166.626 6.45898H169.8C169.927 6.45898 169.994 6.48438 170.003 6.53516V6.89062L169.952 6.9668V7.29688L169.927 7.55078C169.948 7.55078 170.066 7.42383 170.282 7.16992L170.612 6.91602C171.074 6.6071 171.505 6.42936 171.907 6.38281L171.933 6.33203ZM177.607 5.10059H178.496C179.089 5.17253 179.554 5.31641 179.893 5.53223C180.654 6.06966 181.035 7.10221 181.035 8.62988V9.08057C181.035 9.60107 181.027 10.2972 181.01 11.1689C180.976 11.1732 180.959 11.1901 180.959 11.2197C180.959 11.5329 180.951 12.1571 180.934 13.0923C180.951 13.5112 180.959 13.799 180.959 13.9556L180.908 13.9746H179.689C179.342 13.9746 178.818 13.9683 178.115 13.9556L178.064 13.8794V13.3271H178.039C177.286 13.9196 176.719 14.2158 176.338 14.2158C176.338 14.2327 176.329 14.2412 176.312 14.2412H175.957C175.538 14.1143 175.284 13.9788 175.195 13.835C174.853 13.5387 174.599 13.1219 174.434 12.5845C174.396 12.3009 174.362 12.1486 174.332 12.1274V11.3149C174.362 11.2769 174.396 11.1414 174.434 10.9087C174.472 10.6125 174.675 10.276 175.043 9.89941C175.242 9.64551 175.919 9.27734 177.074 8.79492C177.489 8.55794 177.777 8.38232 177.938 8.26807C178.022 8.22152 178.064 8.17285 178.064 8.12207C178.064 7.73698 178.09 7.46615 178.141 7.30957V6.97314C178.064 6.74886 177.997 6.63672 177.938 6.63672C177.861 6.59017 177.785 6.56689 177.709 6.56689C177.561 6.56689 177.468 6.63883 177.43 6.78271C177.311 7.01546 177.252 7.4471 177.252 8.07764L177.201 8.09668C175.441 7.93587 174.561 7.84066 174.561 7.81104V7.74121C174.594 7.70312 174.611 7.67139 174.611 7.646C174.611 7.07894 174.781 6.56689 175.119 6.10986C175.394 5.729 175.826 5.45605 176.414 5.29102C176.672 5.22754 176.833 5.1958 176.896 5.1958L176.922 5.15137C176.956 5.15137 176.973 5.15771 176.973 5.17041C177.29 5.15771 177.502 5.13444 177.607 5.10059ZM177.277 10.8833C177.277 11.0187 177.269 11.1626 177.252 11.3149C177.269 11.4969 177.277 11.6641 177.277 11.8164C177.303 11.8164 177.337 11.8968 177.379 12.0576C177.493 12.1846 177.569 12.248 177.607 12.248C177.819 12.1719 177.954 12.0597 178.014 11.9116L178.064 11.8418V9.96924H178.039C177.59 10.3586 177.337 10.6632 177.277 10.8833ZM182.609 4.28809H185.174C185.199 4.28809 185.225 4.31348 185.25 4.36426V5.40527C185.25 5.4222 185.242 5.43066 185.225 5.43066C185.242 5.46029 185.25 5.49414 185.25 5.53223L185.428 5.50684H185.91C186.037 5.50684 186.105 5.53223 186.113 5.58301V7.33496C186.113 7.36035 186.088 7.38574 186.037 7.41113H185.275L185.225 7.43652L185.25 7.56348V12.9209C185.25 12.9378 185.242 12.9463 185.225 12.9463L185.275 13.0479L185.326 13.0225H186.215C186.24 13.0225 186.266 13.0479 186.291 13.0986V14.6729C186.291 14.6982 186.266 14.7236 186.215 14.749H184.285C184.247 14.7109 184.137 14.6855 183.955 14.6729C183.578 14.5332 183.274 14.3301 183.041 14.0635C182.796 13.763 182.66 13.5176 182.635 13.3271C182.605 13.3271 182.571 13.1748 182.533 12.8701V7.41113H181.721C181.687 7.41113 181.67 7.39421 181.67 7.36035V5.58301C181.67 5.55762 181.695 5.53223 181.746 5.50684H182.355L182.482 5.53223L182.533 5.45605V4.36426C182.533 4.33887 182.559 4.31348 182.609 4.28809ZM187.967 4.28809H190.531C190.557 4.28809 190.582 4.31348 190.607 4.36426V5.40527C190.607 5.4222 190.599 5.43066 190.582 5.43066C190.599 5.46029 190.607 5.49414 190.607 5.53223L190.785 5.50684H191.268C191.395 5.50684 191.462 5.53223 191.471 5.58301V7.33496C191.471 7.36035 191.445 7.38574 191.395 7.41113H190.633L190.582 7.43652L190.607 7.56348V12.9209C190.607 12.9378 190.599 12.9463 190.582 12.9463L190.633 13.0479L190.684 13.0225H191.572C191.598 13.0225 191.623 13.0479 191.648 13.0986V14.6729C191.648 14.6982 191.623 14.7236 191.572 14.749H189.643C189.604 14.7109 189.494 14.6855 189.312 14.6729C188.936 14.5332 188.631 14.3301 188.398 14.0635C188.153 13.763 188.018 13.5176 187.992 13.3271C187.963 13.3271 187.929 13.1748 187.891 12.8701V7.41113H187.078C187.044 7.41113 187.027 7.39421 187.027 7.36035V5.58301C187.027 5.55762 187.053 5.53223 187.104 5.50684H187.713L187.84 5.53223L187.891 5.45605V4.36426C187.891 4.33887 187.916 4.31348 187.967 4.28809ZM193.864 4.12305H193.915C194.376 4.12305 194.765 4.36003 195.083 4.83398C195.133 4.99479 195.159 5.09635 195.159 5.13867V5.54492C195.159 5.82422 194.956 6.11198 194.549 6.4082C194.414 6.47168 194.253 6.52246 194.067 6.56055H193.762C193.462 6.56055 193.157 6.4082 192.848 6.10352C192.768 5.98926 192.683 5.81999 192.594 5.5957V5.08789C192.734 4.69857 192.937 4.4362 193.204 4.30078C193.436 4.18229 193.656 4.12305 193.864 4.12305ZM192.62 7.5H194.956C194.989 7.50423 195.006 7.52116 195.006 7.55078C194.989 8.12207 194.981 8.51139 194.981 8.71875C194.947 8.72298 194.93 8.73991 194.93 8.76953C194.913 9.62435 194.905 10.293 194.905 10.7754V10.8008L194.854 10.877V13.4668C194.888 13.5853 194.905 13.653 194.905 13.6699V13.9492C194.905 13.9831 194.888 14 194.854 14H192.569C192.535 14 192.518 13.9746 192.518 13.9238C192.548 13.8857 192.582 13.6318 192.62 13.1621C192.653 13.1621 192.67 12.8659 192.67 12.2734C192.704 12.2734 192.721 12.2565 192.721 12.2227C192.738 11.334 192.747 10.8092 192.747 10.6484C192.747 10.5384 192.738 9.99674 192.721 9.02344C192.687 8.96842 192.67 8.92611 192.67 8.89648C192.653 8.43522 192.645 8.15592 192.645 8.05859C192.611 8.05859 192.594 8.0332 192.594 7.98242C192.594 7.91471 192.586 7.76237 192.569 7.52539L192.62 7.5ZM199.24 5.93213H199.596C199.714 5.93636 199.773 5.95329 199.773 5.98291L199.824 5.95752H200.205C200.243 5.98714 200.455 6.02946 200.84 6.08447C201.483 6.30452 201.889 6.55843 202.059 6.84619C202.126 6.84619 202.177 6.9139 202.211 7.04932H202.287V6.18604C202.304 6.13525 202.355 6.10986 202.439 6.10986H204.242L204.318 6.16064C204.297 6.58382 204.272 6.79541 204.242 6.79541C204.242 6.90967 204.234 7.17204 204.217 7.58252C204.234 8.38232 204.242 8.91553 204.242 9.18213C204.276 9.23714 204.293 9.28792 204.293 9.33447V12.2798C204.259 12.3983 204.242 12.466 204.242 12.4829C204.242 13.3039 204.115 14.0402 203.861 14.6919C203.548 15.2293 203.057 15.6271 202.389 15.8853C201.822 16.0884 201.356 16.1899 200.992 16.1899H200.891L200.814 16.2407H199.748L199.672 16.1899H199.621C199.003 16.1899 198.284 16.0122 197.463 15.6567C197.226 15.5256 196.98 15.3309 196.727 15.0728C196.405 14.7469 196.244 14.3153 196.244 13.7778V13.7271C196.244 13.6763 196.329 13.634 196.498 13.6001H196.828L196.904 13.5493C196.985 13.5493 197.247 13.5409 197.691 13.5239C197.696 13.4901 197.713 13.4731 197.742 13.4731H198.098C198.123 13.4731 198.165 13.6424 198.225 13.981C198.47 14.4211 198.699 14.6411 198.91 14.6411C198.927 14.6538 199.037 14.6961 199.24 14.7681L199.291 14.7427C199.329 14.7892 199.439 14.8231 199.621 14.8442L199.748 14.8188H200.332L200.484 14.8442C201.09 14.7257 201.58 14.5057 201.957 14.1841C202.194 13.9386 202.312 13.6255 202.312 13.2446C202.329 13.2446 202.338 13.2277 202.338 13.1938C202.304 13.1388 202.287 13.0965 202.287 13.0669C202.27 12.6014 202.262 12.2798 202.262 12.1021C202.228 11.992 202.211 11.9328 202.211 11.9243H202.186C201.724 12.4702 201.343 12.8003 201.043 12.9146C200.662 13.1007 200.273 13.1938 199.875 13.1938C199.875 13.2277 199.858 13.2446 199.824 13.2446H199.012C198.974 13.215 198.821 13.1812 198.555 13.1431C197.59 12.8426 196.82 12.2586 196.244 11.3911C195.889 10.7521 195.711 10.2104 195.711 9.76611V9.23291C195.715 9.11442 195.732 9.05518 195.762 9.05518L195.736 9.00439V8.92822C195.77 8.8859 195.804 8.76742 195.838 8.57275C196.02 8.08187 196.282 7.64176 196.625 7.25244C197.044 6.81234 197.416 6.51611 197.742 6.36377C198.288 6.10986 198.652 5.98291 198.834 5.98291C198.834 5.96598 198.842 5.95752 198.859 5.95752H199.012C199.029 5.95752 199.037 5.96598 199.037 5.98291C199.101 5.94906 199.168 5.93213 199.24 5.93213ZM198.123 9.33447L198.148 9.46143C198.123 9.46143 198.098 9.48682 198.072 9.5376C198.085 9.5376 198.11 9.56299 198.148 9.61377L198.123 9.71533C198.132 9.98617 198.25 10.3247 198.479 10.731C198.952 11.3065 199.469 11.5942 200.027 11.5942H200.053L200.129 11.645H200.205C200.616 11.5942 200.937 11.5011 201.17 11.3657C201.602 11.0737 201.889 10.659 202.033 10.1216C202.042 9.96501 202.067 9.86344 202.109 9.81689V9.23291C202.08 9.18213 202.046 9.03825 202.008 8.80127C201.906 8.46696 201.729 8.17074 201.475 7.9126C201.191 7.64176 200.878 7.48096 200.535 7.43018C200.535 7.41325 200.527 7.40479 200.51 7.40479H199.926C199.52 7.4471 199.105 7.65869 198.682 8.03955C198.309 8.50928 198.123 8.94092 198.123 9.33447ZM205.347 3.66602H209.485C209.519 3.67025 209.536 3.68717 209.536 3.7168V7.47461H209.587C209.587 7.4196 209.688 7.34342 209.892 7.24609C210.184 7.0599 210.615 6.92448 211.187 6.83984H211.796C212.498 6.93717 213.023 7.10645 213.37 7.34766C214.064 7.82585 214.411 8.42676 214.411 9.15039V12.9336C214.415 12.9674 214.432 12.9844 214.462 12.9844H215.097C215.131 12.9886 215.147 13.0055 215.147 13.0352V13.9238C215.147 13.9492 215.122 13.9746 215.071 14H210.399C210.374 14 210.349 13.9746 210.323 13.9238V13.0859C210.323 13.0605 210.349 13.0352 210.399 13.0098H211.567C211.593 13.0098 211.618 12.9844 211.644 12.9336V9.68359C211.644 9.16309 211.534 8.7653 211.313 8.49023C210.983 8.13477 210.603 7.95703 210.171 7.95703C209.815 7.95703 209.578 8.16016 209.46 8.56641V12.959C209.464 12.9928 209.481 13.0098 209.511 13.0098H209.993C210.019 13.0098 210.044 13.0352 210.069 13.0859V13.9238C210.069 13.9492 210.044 13.9746 209.993 14H205.397C205.372 14 205.347 13.9746 205.321 13.9238V13.0352C205.326 13.0013 205.342 12.9844 205.372 12.9844H206.185L206.235 12.959L206.21 12.7812V4.68164L206.235 4.55469L206.185 4.5293H205.347C205.313 4.5293 205.296 4.51237 205.296 4.47852V3.7168C205.3 3.68294 205.317 3.66602 205.347 3.66602ZM219.902 5.53223H220.816C221.819 5.68034 222.606 5.9681 223.177 6.39551C223.715 6.78906 224.138 7.22917 224.447 7.71582C224.701 8.19401 224.828 8.49023 224.828 8.60449V8.62988C224.76 8.67643 224.269 8.88802 223.355 9.26465L222.492 9.59473L221.248 10.1025C220.765 10.2845 220.52 10.403 220.511 10.458C220.537 10.6865 220.689 10.9404 220.968 11.2197C221.231 11.389 221.476 11.4736 221.705 11.4736C221.793 11.4567 221.878 11.4482 221.958 11.4482H222.06L222.898 11.1689C223.287 11.0547 223.694 10.7754 224.117 10.3311H224.142C224.29 10.5046 224.493 10.8431 224.751 11.3467C224.625 11.918 224.151 12.5612 223.33 13.2764C222.581 13.7503 222.107 13.9873 221.908 13.9873C221.531 14.1227 221.235 14.1904 221.019 14.1904H220.917L220.841 14.2412H219.927C219.208 14.1396 218.607 13.9704 218.125 13.7334C217.761 13.5811 217.295 13.2256 216.728 12.667C216.381 12.2523 216.153 11.8968 216.042 11.6006C215.856 11.3128 215.721 10.805 215.636 10.0771V9.69629C215.721 8.97266 215.865 8.43945 216.068 8.09668C216.343 7.4873 216.783 6.96257 217.388 6.52246C217.651 6.29395 217.955 6.10775 218.302 5.96387C218.962 5.69303 219.47 5.55762 219.826 5.55762C219.826 5.54069 219.851 5.53223 219.902 5.53223ZM220.13 8.42676L220.181 8.78223H220.207C220.295 8.78223 220.482 8.72298 220.765 8.60449L221.933 8.22363V8.19824C221.709 7.77507 221.472 7.56348 221.222 7.56348C221.222 7.52539 221.146 7.5 220.994 7.4873C220.757 7.4873 220.528 7.62272 220.308 7.89355C220.19 8.08822 220.13 8.26595 220.13 8.42676ZM226.535 4.28809H229.1C229.125 4.28809 229.15 4.31348 229.176 4.36426V5.40527C229.176 5.4222 229.167 5.43066 229.15 5.43066C229.167 5.46029 229.176 5.49414 229.176 5.53223L229.354 5.50684H229.836C229.963 5.50684 230.031 5.53223 230.039 5.58301V7.33496C230.039 7.36035 230.014 7.38574 229.963 7.41113H229.201L229.15 7.43652L229.176 7.56348V12.9209C229.176 12.9378 229.167 12.9463 229.15 12.9463L229.201 13.0479L229.252 13.0225H230.141C230.166 13.0225 230.191 13.0479 230.217 13.0986V14.6729C230.217 14.6982 230.191 14.7236 230.141 14.749H228.211C228.173 14.7109 228.063 14.6855 227.881 14.6729C227.504 14.5332 227.2 14.3301 226.967 14.0635C226.721 13.763 226.586 13.5176 226.561 13.3271C226.531 13.3271 226.497 13.1748 226.459 12.8701V7.41113H225.646C225.613 7.41113 225.596 7.39421 225.596 7.36035V5.58301C225.596 5.55762 225.621 5.53223 225.672 5.50684H226.281L226.408 5.53223L226.459 5.45605V4.36426C226.459 4.33887 226.484 4.31348 226.535 4.28809ZM235.035 5.53223H235.949C236.952 5.68034 237.739 5.9681 238.31 6.39551C238.847 6.78906 239.271 7.22917 239.58 7.71582C239.833 8.19401 239.96 8.49023 239.96 8.60449V8.62988C239.893 8.67643 239.402 8.88802 238.488 9.26465L237.625 9.59473L236.38 10.1025C235.898 10.2845 235.653 10.403 235.644 10.458C235.669 10.6865 235.822 10.9404 236.101 11.2197C236.363 11.389 236.609 11.4736 236.837 11.4736C236.926 11.4567 237.011 11.4482 237.091 11.4482H237.193L238.031 11.1689C238.42 11.0547 238.826 10.7754 239.25 10.3311H239.275C239.423 10.5046 239.626 10.8431 239.884 11.3467C239.757 11.918 239.283 12.5612 238.462 13.2764C237.713 13.7503 237.239 13.9873 237.041 13.9873C236.664 14.1227 236.368 14.1904 236.152 14.1904H236.05L235.974 14.2412H235.06C234.341 14.1396 233.74 13.9704 233.257 13.7334C232.893 13.5811 232.428 13.2256 231.861 12.667C231.514 12.2523 231.285 11.8968 231.175 11.6006C230.989 11.3128 230.854 10.805 230.769 10.0771V9.69629C230.854 8.97266 230.998 8.43945 231.201 8.09668C231.476 7.4873 231.916 6.96257 232.521 6.52246C232.783 6.29395 233.088 6.10775 233.435 5.96387C234.095 5.69303 234.603 5.55762 234.958 5.55762C234.958 5.54069 234.984 5.53223 235.035 5.53223ZM235.263 8.42676L235.314 8.78223H235.339C235.428 8.78223 235.614 8.72298 235.898 8.60449L237.066 8.22363V8.19824C236.842 7.77507 236.605 7.56348 236.355 7.56348C236.355 7.52539 236.279 7.5 236.126 7.4873C235.889 7.4873 235.661 7.62272 235.441 7.89355C235.322 8.08822 235.263 8.26595 235.263 8.42676ZM246.568 6.33203C246.602 6.33203 246.619 6.34049 246.619 6.35742L246.873 6.33203H247.305C247.364 6.33203 247.44 6.34049 247.533 6.35742C247.567 6.34049 247.592 6.33203 247.609 6.33203C247.664 6.37435 247.893 6.46745 248.295 6.61133L248.346 6.6875V6.73828C246.979 8.52832 246.183 9.55241 245.959 9.81055C245.79 9.64128 245.62 9.55664 245.451 9.55664C245.041 9.55664 244.728 9.78516 244.512 10.2422C244.495 10.4157 244.486 10.5511 244.486 10.6484V13.9238C244.469 13.9746 244.419 14 244.334 14H241.287C241.198 14 241.147 13.9746 241.135 13.9238V13.873C241.186 13.5218 241.228 13.2933 241.262 13.1875C241.279 12.8913 241.287 12.7135 241.287 12.6543C241.321 12.6543 241.338 12.6374 241.338 12.6035C241.355 12.0957 241.363 11.7995 241.363 11.7148C241.397 11.6598 241.414 11.609 241.414 11.5625V9.37891C241.38 9.29004 241.355 8.93457 241.338 8.3125C241.287 8.23633 241.262 8.00781 241.262 7.62695C241.228 7.62695 241.186 7.38151 241.135 6.89062C241.114 6.74251 241.088 6.64941 241.059 6.61133V6.53516C241.071 6.48438 241.139 6.45898 241.262 6.45898H244.436C244.562 6.45898 244.63 6.48438 244.639 6.53516V6.89062L244.588 6.9668V7.29688L244.562 7.55078C244.584 7.55078 244.702 7.42383 244.918 7.16992L245.248 6.91602C245.709 6.6071 246.141 6.42936 246.543 6.38281L246.568 6.33203ZM257.029 5.72266H257.543L258.502 5.84961C259.64 6.16276 260.512 6.67904 261.117 7.39844L260.095 8.38867C259.922 8.5918 259.784 8.69336 259.683 8.69336C259.374 8.4056 258.893 8.26172 258.242 8.26172C257.311 8.26172 256.684 8.62565 256.363 9.35352L256.395 9.48047V9.6582C256.395 9.67513 256.384 9.68359 256.363 9.68359C256.363 9.91211 256.553 10.1829 256.934 10.4961C257.433 10.7331 257.795 10.8516 258.02 10.8516C258.02 10.8685 258.03 10.877 258.051 10.877H258.432C258.813 10.8219 259.111 10.7458 259.327 10.6484H259.359C259.439 10.7077 259.93 11.2917 260.832 12.4004V12.5273C260.197 13.0817 259.695 13.4033 259.327 13.4922C259.044 13.6615 258.587 13.7884 257.956 13.873C257.956 13.89 257.945 13.8984 257.924 13.8984C257.785 13.8984 257.571 13.9069 257.283 13.9238C257.008 13.9069 256.786 13.8984 256.617 13.8984C256.617 13.8688 256.361 13.818 255.849 13.7461L255.208 13.4668C254.399 13.1706 253.72 12.612 253.17 11.791C252.785 11.207 252.592 10.5553 252.592 9.83594V9.78516C252.592 9.64128 252.603 9.41276 252.624 9.09961C252.658 9.09961 252.711 8.91341 252.783 8.54102C253.032 7.99512 253.352 7.52116 253.741 7.11914C254.346 6.514 255.091 6.10775 255.976 5.90039C256.153 5.83691 256.505 5.77767 257.029 5.72266ZM265.25 6.29395H265.719C266.307 6.37858 266.773 6.52458 267.116 6.73193C267.81 7.16357 268.332 7.81315 268.684 8.68066C268.781 9.05729 268.83 9.30485 268.83 9.42334V9.50586L268.88 9.58203V10.4517C268.796 11.078 268.646 11.5752 268.43 11.9434C268.362 12.1888 268.04 12.5908 267.465 13.1494C267.105 13.4076 266.699 13.6043 266.246 13.7397V13.7144C266.005 13.7821 265.872 13.8159 265.846 13.8159H265.275C264.881 13.7821 264.424 13.6276 263.904 13.3525C262.761 12.5485 262.19 11.4715 262.19 10.1216V9.9375C262.19 9.04883 262.488 8.22786 263.085 7.47461C263.119 7.47461 263.261 7.32861 263.51 7.03662C263.54 7.03662 263.656 6.96045 263.859 6.80811C264.308 6.52035 264.763 6.35742 265.224 6.31934C265.224 6.30241 265.233 6.29395 265.25 6.29395ZM264.386 8.1665C264.42 8.20036 264.437 8.24056 264.437 8.28711L264.297 8.43945L264.342 8.55371C264.321 8.69336 264.291 8.76318 264.253 8.76318L264.297 8.82666V9.03613C264.234 9.17578 264.202 9.25618 264.202 9.27734V10.4707C264.202 10.5173 264.187 10.5575 264.158 10.5913L264.297 10.7437V10.9785C264.297 10.9997 264.283 11.0103 264.253 11.0103C264.283 11.0314 264.312 11.152 264.342 11.3721H264.297C264.39 11.5329 264.437 11.6217 264.437 11.6387H264.386C264.699 12.5358 264.945 12.9844 265.123 12.9844C265.123 13.0394 265.26 13.1198 265.535 13.2256H265.624C265.924 13.1536 266.231 12.8151 266.544 12.21C266.544 12.1296 266.621 11.8883 266.773 11.4863L266.729 11.4292V11.3403C266.788 11.2599 266.834 11.2197 266.868 11.2197L266.817 11.1626V10.9531C266.826 10.8516 266.858 10.8008 266.913 10.8008L266.868 10.6484V9.18213C266.868 9.13981 266.883 9.10173 266.913 9.06787C266.858 8.93245 266.796 8.7124 266.729 8.40771L266.773 8.34424C266.714 8.26807 266.684 8.19824 266.684 8.13477C266.714 8.09668 266.729 8.06706 266.729 8.0459C266.686 8.0459 266.625 7.95703 266.544 7.7793C266.574 7.74121 266.589 7.71159 266.589 7.69043C266.547 7.69043 266.441 7.5 266.271 7.11914C266.056 6.85254 265.84 6.69385 265.624 6.64307C265.116 6.64307 264.704 7.15088 264.386 8.1665ZM275.698 6.36377C275.732 6.36377 275.749 6.37223 275.749 6.38916L275.926 6.36377H276.561C276.578 6.36377 276.586 6.37223 276.586 6.38916L276.637 6.36377C277.192 6.51188 277.623 6.76579 277.932 7.12549C278.288 7.57406 278.465 7.99723 278.465 8.39502C278.482 8.39502 278.491 8.42041 278.491 8.47119V13.9556C278.474 14.0063 278.423 14.0317 278.338 14.0317H275.215C275.148 14.0021 275.114 13.9429 275.114 13.854V10.2231C275.114 10.1851 275.122 10.1512 275.139 10.1216C275.139 9.96924 275.012 9.79997 274.758 9.61377L274.504 9.58838C274.145 9.58838 273.857 9.79997 273.641 10.2231C273.624 10.2528 273.616 10.2866 273.616 10.3247V13.854C273.616 13.9429 273.582 14.0021 273.514 14.0317H269.909C269.875 14.0317 269.858 14.0148 269.858 13.981V13.8286C269.959 13.3123 270.01 12.8638 270.01 12.4829C270.044 12.4829 270.061 12.466 270.061 12.4321C270.078 11.9666 270.086 11.6027 270.086 11.3403C270.12 11.3403 270.137 11.3234 270.137 11.2896V9.71533C270.103 9.67301 270.086 9.63916 270.086 9.61377C270.086 9.41911 270.078 9.03825 270.061 8.47119C270.027 8.47119 270.01 8.4458 270.01 8.39502C270.01 8.31885 270.002 8.12419 269.985 7.81104C269.951 7.81104 269.934 7.78564 269.934 7.73486C269.934 7.46403 269.875 7.06624 269.756 6.5415L269.833 6.49072H273.565C273.692 6.49072 273.76 6.51611 273.768 6.56689C273.768 6.62191 273.743 6.69808 273.692 6.79541L273.717 6.84619V7.1001C273.717 7.18473 273.7 7.22705 273.667 7.22705L273.692 7.354V7.37939L273.667 7.50635L273.717 7.53174C274.157 7.07471 274.564 6.76156 274.936 6.59229C275.406 6.45687 275.651 6.38916 275.672 6.38916C275.672 6.37223 275.681 6.36377 275.698 6.36377ZM280.338 4.28809H282.902C282.928 4.28809 282.953 4.31348 282.979 4.36426V5.40527C282.979 5.4222 282.97 5.43066 282.953 5.43066C282.97 5.46029 282.979 5.49414 282.979 5.53223L283.156 5.50684H283.639C283.766 5.50684 283.833 5.53223 283.842 5.58301V7.33496C283.842 7.36035 283.816 7.38574 283.766 7.41113H283.004L282.953 7.43652L282.979 7.56348V12.9209C282.979 12.9378 282.97 12.9463 282.953 12.9463L283.004 13.0479L283.055 13.0225H283.943C283.969 13.0225 283.994 13.0479 284.02 13.0986V14.6729C284.02 14.6982 283.994 14.7236 283.943 14.749H282.014C281.976 14.7109 281.866 14.6855 281.684 14.6729C281.307 14.5332 281.002 14.3301 280.77 14.0635C280.524 13.763 280.389 13.5176 280.363 13.3271C280.334 13.3271 280.3 13.1748 280.262 12.8701V7.41113H279.449C279.415 7.41113 279.398 7.39421 279.398 7.36035V5.58301C279.398 5.55762 279.424 5.53223 279.475 5.50684H280.084L280.211 5.53223L280.262 5.45605V4.36426C280.262 4.33887 280.287 4.31348 280.338 4.28809ZM290.596 6.33203C290.63 6.33203 290.646 6.34049 290.646 6.35742L290.9 6.33203H291.332C291.391 6.33203 291.467 6.34049 291.561 6.35742C291.594 6.34049 291.62 6.33203 291.637 6.33203C291.692 6.37435 291.92 6.46745 292.322 6.61133L292.373 6.6875V6.73828C291.006 8.52832 290.211 9.55241 289.986 9.81055C289.817 9.64128 289.648 9.55664 289.479 9.55664C289.068 9.55664 288.755 9.78516 288.539 10.2422C288.522 10.4157 288.514 10.5511 288.514 10.6484V13.9238C288.497 13.9746 288.446 14 288.361 14H285.314C285.226 14 285.175 13.9746 285.162 13.9238V13.873C285.213 13.5218 285.255 13.2933 285.289 13.1875C285.306 12.8913 285.314 12.7135 285.314 12.6543C285.348 12.6543 285.365 12.6374 285.365 12.6035C285.382 12.0957 285.391 11.7995 285.391 11.7148C285.424 11.6598 285.441 11.609 285.441 11.5625V9.37891C285.408 9.29004 285.382 8.93457 285.365 8.3125C285.314 8.23633 285.289 8.00781 285.289 7.62695C285.255 7.62695 285.213 7.38151 285.162 6.89062C285.141 6.74251 285.116 6.64941 285.086 6.61133V6.53516C285.099 6.48438 285.166 6.45898 285.289 6.45898H288.463C288.59 6.45898 288.658 6.48438 288.666 6.53516V6.89062L288.615 6.9668V7.29688L288.59 7.55078C288.611 7.55078 288.729 7.42383 288.945 7.16992L289.275 6.91602C289.737 6.6071 290.168 6.42936 290.57 6.38281L290.596 6.33203ZM296.328 6.29395H296.797C297.386 6.37858 297.851 6.52458 298.194 6.73193C298.888 7.16357 299.41 7.81315 299.762 8.68066C299.859 9.05729 299.908 9.30485 299.908 9.42334V9.50586L299.958 9.58203V10.4517C299.874 11.078 299.724 11.5752 299.508 11.9434C299.44 12.1888 299.118 12.5908 298.543 13.1494C298.183 13.4076 297.777 13.6043 297.324 13.7397V13.7144C297.083 13.7821 296.95 13.8159 296.924 13.8159H296.353C295.959 13.7821 295.502 13.6276 294.982 13.3525C293.839 12.5485 293.268 11.4715 293.268 10.1216V9.9375C293.268 9.04883 293.566 8.22786 294.163 7.47461C294.197 7.47461 294.339 7.32861 294.588 7.03662C294.618 7.03662 294.734 6.96045 294.938 6.80811C295.386 6.52035 295.841 6.35742 296.302 6.31934C296.302 6.30241 296.311 6.29395 296.328 6.29395ZM295.464 8.1665C295.498 8.20036 295.515 8.24056 295.515 8.28711L295.375 8.43945L295.42 8.55371C295.399 8.69336 295.369 8.76318 295.331 8.76318L295.375 8.82666V9.03613C295.312 9.17578 295.28 9.25618 295.28 9.27734V10.4707C295.28 10.5173 295.265 10.5575 295.236 10.5913L295.375 10.7437V10.9785C295.375 10.9997 295.361 11.0103 295.331 11.0103C295.361 11.0314 295.39 11.152 295.42 11.3721H295.375C295.469 11.5329 295.515 11.6217 295.515 11.6387H295.464C295.778 12.5358 296.023 12.9844 296.201 12.9844C296.201 13.0394 296.338 13.1198 296.613 13.2256H296.702C297.003 13.1536 297.309 12.8151 297.623 12.21C297.623 12.1296 297.699 11.8883 297.851 11.4863L297.807 11.4292V11.3403C297.866 11.2599 297.912 11.2197 297.946 11.2197L297.896 11.1626V10.9531C297.904 10.8516 297.936 10.8008 297.991 10.8008L297.946 10.6484V9.18213C297.946 9.13981 297.961 9.10173 297.991 9.06787C297.936 8.93245 297.874 8.7124 297.807 8.40771L297.851 8.34424C297.792 8.26807 297.762 8.19824 297.762 8.13477C297.792 8.09668 297.807 8.06706 297.807 8.0459C297.764 8.0459 297.703 7.95703 297.623 7.7793C297.652 7.74121 297.667 7.71159 297.667 7.69043C297.625 7.69043 297.519 7.5 297.35 7.11914C297.134 6.85254 296.918 6.69385 296.702 6.64307C296.194 6.64307 295.782 7.15088 295.464 8.1665ZM301.038 4.82764H303.399C303.433 4.83187 303.45 4.8488 303.45 4.87842V5.51318L303.399 5.69092C303.382 6.61768 303.374 7.30322 303.374 7.74756L303.323 7.77295C303.306 9.96501 303.297 11.5562 303.297 12.5464C303.297 12.9146 303.306 13.4901 303.323 14.2729L303.272 14.2983H301.012L300.961 14.2729C300.978 14.0444 300.987 13.8752 300.987 13.7651V13.6636L301.038 13.5874C301.038 13.5197 301.046 13.1981 301.063 12.6226L301.114 12.4448C301.131 11.6493 301.139 11.0399 301.139 10.6167C301.173 10.6167 301.19 10.5998 301.19 10.5659V8.20459L301.139 7.97607C301.139 7.65869 301.131 7.06624 301.114 6.19873C301.08 6.14372 301.063 6.1014 301.063 6.07178C301.046 5.50049 301.038 5.17041 301.038 5.08154C301.004 5.08154 300.987 5.06462 300.987 5.03076V4.87842C300.991 4.84456 301.008 4.82764 301.038 4.82764ZM308.541 5.53223H309.455C310.458 5.68034 311.245 5.9681 311.816 6.39551C312.353 6.78906 312.777 7.22917 313.085 7.71582C313.339 8.19401 313.466 8.49023 313.466 8.60449V8.62988C313.399 8.67643 312.908 8.88802 311.994 9.26465L311.13 9.59473L309.886 10.1025C309.404 10.2845 309.158 10.403 309.15 10.458C309.175 10.6865 309.328 10.9404 309.607 11.2197C309.869 11.389 310.115 11.4736 310.343 11.4736C310.432 11.4567 310.517 11.4482 310.597 11.4482H310.699L311.537 11.1689C311.926 11.0547 312.332 10.7754 312.755 10.3311H312.781C312.929 10.5046 313.132 10.8431 313.39 11.3467C313.263 11.918 312.789 12.5612 311.968 13.2764C311.219 13.7503 310.745 13.9873 310.546 13.9873C310.17 14.1227 309.874 14.1904 309.658 14.1904H309.556L309.48 14.2412H308.566C307.847 14.1396 307.246 13.9704 306.763 13.7334C306.399 13.5811 305.934 13.2256 305.367 12.667C305.02 12.2523 304.791 11.8968 304.681 11.6006C304.495 11.3128 304.36 10.805 304.275 10.0771V9.69629C304.36 8.97266 304.503 8.43945 304.707 8.09668C304.982 7.4873 305.422 6.96257 306.027 6.52246C306.289 6.29395 306.594 6.10775 306.941 5.96387C307.601 5.69303 308.109 5.55762 308.464 5.55762C308.464 5.54069 308.49 5.53223 308.541 5.53223ZM308.769 8.42676L308.82 8.78223H308.845C308.934 8.78223 309.12 8.72298 309.404 8.60449L310.572 8.22363V8.19824C310.347 7.77507 310.111 7.56348 309.861 7.56348C309.861 7.52539 309.785 7.5 309.632 7.4873C309.395 7.4873 309.167 7.62272 308.947 7.89355C308.828 8.08822 308.769 8.26595 308.769 8.42676Z" fill="white"/>
</svg>
